<?xml version="1.0" encoding="utf-8"?><svg xml:space="preserve" viewBox="0 0 100 100" y="0" x="0" xmlns="http://www.w3.org/2000/svg" id="Layer_1" version="1.1" width="200px" height="200px" xmlns:xlink="http://www.w3.org/1999/xlink" style="width:100%;height:100%;background-size:initial;background-repeat-y:initial;background-repeat-x:initial;background-position-y:initial;background-position-x:initial;background-origin:initial;background-color:initial;background-clip:initial;background-attachment:initial;animation-play-state:paused" ><g class="ldl-scale" style="transform-origin:50% 50%;transform:rotate(0deg) scale(0.8, 0.8);animation-play-state:paused" ><circle fill="#333" r="40" cy="50" cx="50" style="fill:rgb(51, 51, 51);animation-play-state:paused" ></circle>
<path fill="#fff" d="M30.68 39.844H28v24.575c0 1.015.825 1.84 1.84 1.84h.84V39.844z" style="fill:rgb(255, 255, 255);animation-play-state:paused" ></path>
<path fill="#fff" d="M72 64.419V33.741H37.494v32.518H70.16c1.015 0 1.84-.825 1.84-1.84z" style="fill:rgb(255, 255, 255);animation-play-state:paused" ></path>
<path d="M32.747 36.454h2.68v29.805h-2.68z" fill="#fff" style="fill:rgb(255, 255, 255);animation-play-state:paused" ></path>
<g style="animation-play-state:paused" ><g style="animation-play-state:paused" ><path stroke-miterlimit="10" stroke="#fff" stroke-width=".3" fill="#333" d="M47.195 44.136h-1.737l-2.569-4.51v4.51h-1.747v-7.248h1.747l2.564 4.51v-4.51h1.742v7.248z" style="stroke:rgb(255, 255, 255);fill:rgb(51, 51, 51);animation-play-state:paused" ></path></g>
<g style="animation-play-state:paused" ><path stroke-miterlimit="10" stroke="#fff" stroke-width=".3" fill="#333" d="M52.796 41.06h-2.748v1.732h3.246v1.344H48.3v-7.248h5.003v1.349h-3.256v1.528h2.748v1.295z" style="stroke:rgb(255, 255, 255);fill:rgb(51, 51, 51);animation-play-state:paused" ></path></g>
<g style="animation-play-state:paused" ><path stroke-miterlimit="10" stroke="#fff" stroke-width=".3" fill="#333" d="M59.62 41.433l.831-4.545h1.732l-1.538 7.248h-1.812l-.971-4.132-.951 4.132h-1.807l-1.543-7.248h1.737l.831 4.545.996-4.545h1.483l1.012 4.545z" style="stroke:rgb(255, 255, 255);fill:rgb(51, 51, 51);animation-play-state:paused" ></path></g>
<g style="animation-play-state:paused" ><path stroke-miterlimit="10" stroke="#fff" stroke-width=".3" fill="#333" d="M66.605 42.21c0-.256-.09-.455-.271-.597s-.499-.29-.953-.443-.826-.3-1.115-.443c-.939-.461-1.409-1.095-1.409-1.902 0-.402.117-.756.351-1.063.234-.307.565-.546.993-.717a3.862 3.862 0 0 1 1.444-.256c.521 0 .988.093 1.401.279.413.186.734.451.963.794.229.343.343.736.343 1.177H66.61c0-.295-.09-.524-.271-.687s-.426-.244-.734-.244c-.312 0-.558.069-.739.207a.634.634 0 0 0-.271.525c0 .186.1.354.299.505.199.151.549.307 1.05.468a6.44 6.44 0 0 1 1.235.52c.783.451 1.175 1.074 1.175 1.867 0 .634-.239 1.132-.717 1.493-.478.362-1.133.543-1.966.543a3.895 3.895 0 0 1-1.595-.316c-.476-.211-.835-.499-1.075-.866s-.361-.789-.361-1.267h1.752c0 .388.1.675.301.859s.527.276.978.276c.289 0 .517-.062.684-.187.166-.124.25-.3.25-.525z" style="stroke:rgb(255, 255, 255);fill:rgb(51, 51, 51);animation-play-state:paused" ></path></g></g>
<g style="animation-play-state:paused" ><path d="M53.391 46.948H68.31v10.85H53.391z" fill="#333" style="fill:rgb(51, 51, 51);animation-play-state:paused" ></path></g>
<g style="animation-play-state:paused" ><path d="M41.184 47.271h9.494v2.067h-9.494z" fill="#333" style="fill:rgb(51, 51, 51);animation-play-state:paused" ></path></g>
<g style="animation-play-state:paused" ><path d="M41.184 51.34h9.494v2.067h-9.494z" fill="#333" style="fill:rgb(51, 51, 51);animation-play-state:paused" ></path></g>
<g style="animation-play-state:paused" ><path d="M41.184 55.409h9.494v2.067h-9.494z" fill="#333" style="fill:rgb(51, 51, 51);animation-play-state:paused" ></path></g>
<g style="animation-play-state:paused" ><path d="M41.184 60.156h27.125v2.067H41.184z" fill="#333" style="fill:rgb(51, 51, 51);animation-play-state:paused" ></path></g>
<metadata xmlns:d="https://loading.io/stock/" style="animation-play-state:paused" ><d:name style="animation-play-state:paused" >newspaper</d:name>


<d:tags style="animation-play-state:paused" >newspaper,journalism,journalist,mass media,news media,news report,reporter</d:tags>


<d:license style="animation-play-state:paused" >by</d:license>


<d:slug style="animation-play-state:paused" >o6xsg0</d:slug></metadata></g><!-- generated by https://loading.io/ --></svg>